<svg version="1.1" xmlns="http://www.w3.org/2000/svg" width="512" height="512" viewBox="0 0 512 512">
  <defs>
    <linearGradient id="bgGrad" x1="0" y1="0" x2="0" y2="1">
      <stop offset="0" stop-color="#141414"/>
      <stop offset="1" stop-color="#0a0a0a"/>
    </linearGradient>
    <linearGradient id="vaultGrad" x1="0" y1="1" x2="0" y2="0">
      <stop offset="0" stop-color="#00bf5f"/>
      <stop offset="1" stop-color="#00ef78"/>
    </linearGradient>
    <filter id="glow" x="-10%" y="-10%" width="120%" height="120%">
      <feGaussianBlur in="SourceAlpha" stdDeviation="3" result="blur"/>
      <feFlood flood-color="#00c864" flood-opacity="0.35" result="color"/>
      <feComposite in="color" in2="blur" operator="in" result="glow"/>
      <feMerge>
        <feMergeNode in="glow"/>
        <feMergeNode in="SourceGraphic"/>
      </feMerge>
    </filter>
  </defs>

  <!-- Background -->
  <rect width="512" height="512" fill="url(#bgGrad)"/>

  <!-- Vault icon: original coords 0,0 to 64.861,51.582
       Scaled to ~316px wide, centered on 512x512 canvas.
       scale = 316/64.861 ≈ 4.872
       tx = (512 - 316) / 2 = 98
       ty = (512 - 251.5) / 2 = 130.25  -->
  <g transform="translate(98, 130) scale(4.872)" fill="url(#vaultGrad)" filter="url(#glow)">
    <!-- Pediment / roof -->
    <path d="M 60.802 18.618 L 4.05 18.618 C 2.917 18.618 1.955 18.167 1.171 17.241 C 0.39 16.323 0 15.226 0 13.945 C 0 12.668 0.39 11.576 1.171 10.686 C 1.955 9.793 2.917 9.345 4.05 9.347 L 32.431 0 L 60.802 9.347 C 61.944 9.347 62.908 9.793 63.686 10.686 C 64.473 11.576 64.861 12.668 64.861 13.945 C 64.861 15.233 64.473 16.323 63.686 17.241 C 62.908 18.167 61.944 18.618 60.802 18.618 Z"/>
    <!-- Column 1 -->
    <path d="M 8.904 51.582 C 7.76 51.582 6.799 51.124 6.018 50.202 C 5.241 49.288 4.843 48.196 4.843 46.944 L 4.843 25.917 C 4.843 24.613 5.241 23.514 6.018 22.624 C 6.799 21.728 7.76 21.287 8.904 21.287 L 17.005 21.287 C 18.146 21.287 19.108 21.728 19.887 22.624 C 20.673 23.514 21.064 24.613 21.064 25.917 L 21.064 46.944 C 21.064 48.196 20.659 49.288 19.857 50.202 C 19.058 51.124 18.102 51.582 17.005 51.582 Z"/>
    <!-- Column 2 -->
    <path d="M 29.172 51.582 C 28.03 51.582 27.069 51.124 26.29 50.202 C 25.502 49.288 25.114 48.196 25.114 46.944 L 25.114 25.917 C 25.114 24.613 25.517 23.514 26.322 22.624 C 27.121 21.728 28.074 21.287 29.172 21.287 L 37.277 21.287 C 38.416 21.287 39.378 21.728 40.158 22.624 C 40.943 23.514 41.333 24.613 41.333 25.917 L 41.333 46.944 C 41.333 48.196 40.943 49.288 40.158 50.202 C 39.378 51.124 38.416 51.582 37.277 51.582 Z"/>
    <!-- Column 3 -->
    <path d="M 49.436 51.582 C 48.338 51.582 47.391 51.124 46.586 50.202 C 45.787 49.288 45.386 48.196 45.386 46.944 L 45.386 25.917 C 45.386 24.613 45.787 23.514 46.586 22.624 C 47.391 21.728 48.338 21.287 49.436 21.287 L 57.547 21.287 C 58.688 21.287 59.647 21.728 60.428 22.624 C 61.207 23.514 61.595 24.613 61.595 25.917 L 61.595 46.944 C 61.595 48.196 61.207 49.288 60.428 50.202 C 59.647 51.124 58.688 51.582 57.547 51.582 Z"/>
  </g>
</svg>
